<mxfile host="app.diagrams.net" modified="2021-10-22T00:00:13.542Z" agent="5.0 (Windows NT 10.0; Win64; x64) AppleWebKit/537.36 (KHTML, like Gecko) Chrome/94.0.4606.81 Safari/537.36" etag="IsgFwbutughYiBtQiTst" version="15.5.8" type="github">
  <diagram id="KZL4ccRYQTfhtg9MH6Cs" name="Page-1">
    <mxGraphModel dx="1422" dy="794" grid="1" gridSize="10" guides="1" tooltips="1" connect="1" arrows="1" fold="1" page="1" pageScale="1" pageWidth="827" pageHeight="1169" math="0" shadow="0">
      <root>
        <mxCell id="0" />
        <mxCell id="1" parent="0" />
        <mxCell id="H_usGOtzKehHRIBkM_qe-1" value="&lt;font style=&quot;font-size: 19px&quot;&gt;&lt;b&gt;Начало&lt;/b&gt;&lt;/font&gt;" style="ellipse;whiteSpace=wrap;html=1;strokeWidth=2;" vertex="1" parent="1">
          <mxGeometry x="354" y="20" width="120" height="80" as="geometry" />
        </mxCell>
        <mxCell id="H_usGOtzKehHRIBkM_qe-2" value="" style="endArrow=classic;html=1;rounded=0;fontSize=19;exitX=0.5;exitY=1;exitDx=0;exitDy=0;" edge="1" parent="1" source="H_usGOtzKehHRIBkM_qe-1" target="H_usGOtzKehHRIBkM_qe-3">
          <mxGeometry width="50" height="50" relative="1" as="geometry">
            <mxPoint x="420" y="160" as="sourcePoint" />
            <mxPoint x="590" y="60" as="targetPoint" />
          </mxGeometry>
        </mxCell>
        <mxCell id="H_usGOtzKehHRIBkM_qe-6" style="edgeStyle=orthogonalEdgeStyle;rounded=0;orthogonalLoop=1;jettySize=auto;html=1;entryX=0.5;entryY=0;entryDx=0;entryDy=0;fontSize=19;" edge="1" parent="1" source="H_usGOtzKehHRIBkM_qe-3" target="H_usGOtzKehHRIBkM_qe-4">
          <mxGeometry relative="1" as="geometry" />
        </mxCell>
        <mxCell id="H_usGOtzKehHRIBkM_qe-3" value="x" style="shape=parallelogram;perimeter=parallelogramPerimeter;whiteSpace=wrap;html=1;fixedSize=1;fontSize=19;strokeWidth=2;" vertex="1" parent="1">
          <mxGeometry x="354" y="120" width="120" height="60" as="geometry" />
        </mxCell>
        <mxCell id="H_usGOtzKehHRIBkM_qe-12" style="edgeStyle=orthogonalEdgeStyle;rounded=0;orthogonalLoop=1;jettySize=auto;html=1;entryX=0.5;entryY=0;entryDx=0;entryDy=0;fontSize=20;" edge="1" parent="1" source="H_usGOtzKehHRIBkM_qe-4" target="H_usGOtzKehHRIBkM_qe-10">
          <mxGeometry relative="1" as="geometry" />
        </mxCell>
        <mxCell id="H_usGOtzKehHRIBkM_qe-4" value="d = (int)((x - (int)x)*10);" style="whiteSpace=wrap;html=1;fontSize=19;strokeWidth=2;" vertex="1" parent="1">
          <mxGeometry x="274" y="200" width="279" height="80" as="geometry" />
        </mxCell>
        <mxCell id="H_usGOtzKehHRIBkM_qe-10" value="" style="shape=manualInput;whiteSpace=wrap;html=1;fontSize=20;strokeWidth=2;flipV=1;size=40;" vertex="1" parent="1">
          <mxGeometry x="374" y="300" width="80" height="110" as="geometry" />
        </mxCell>
        <mxCell id="H_usGOtzKehHRIBkM_qe-13" value="d" style="whiteSpace=wrap;html=1;aspect=fixed;fontSize=20;strokeWidth=2;fillColor=none;strokeColor=none;" vertex="1" parent="1">
          <mxGeometry x="374" y="300" width="80" height="80" as="geometry" />
        </mxCell>
      </root>
    </mxGraphModel>
  </diagram>
</mxfile>
